<?xml version="1.0" encoding="UTF-8"?>
<svg id="Layer_1" data-name="Layer 1" xmlns="http://www.w3.org/2000/svg" xmlns:xlink="http://www.w3.org/1999/xlink" viewBox="0 0 40 40">
  <defs>
    <style>
      .cls-1 {
        fill: #9bc442;
      }

      .cls-2 {
        fill: none;
        stroke: #9bc442;
        stroke-linecap: round;
        stroke-miterlimit: 10;
        stroke-width: 2px;
      }
    </style>
  </defs>
  <image width="512" height="512" transform="translate(-3.57 -3.57) scale(.09)" xlink:href="C:\Users\HP\Downloads\e-commerce website.png"/>
  <rect class="cls-2" x="1.49" y="3.7" width="37.02" height="32.94" rx="2.81" ry="2.81"/>
  <path class="cls-2" d="M7.3,12.26h2.66c.92,0,1.72,.61,1.97,1.49l2.98,10.55c.25,.88,1.06,1.49,1.97,1.49h9.1c.88,0,1.67-.57,1.95-1.4l2.21-6.64c.44-1.32-.54-2.69-1.94-2.7l-15.94-.09"/>
  <ellipse class="cls-2" cx="17.06" cy="27.33" rx="1.53" ry="1.65"/>
  <ellipse class="cls-2" cx="25.7" cy="27.44" rx="1.53" ry="1.65"/>
  <circle class="cls-1" cx="3.56" cy="6.27" r=".56"/>
  <circle class="cls-1" cx="5.44" cy="6.27" r=".56"/>
  <circle class="cls-1" cx="7.3" cy="6.27" r=".56"/>
</svg>