<?xml version="1.0" encoding="UTF-8"?>
<svg id="Layer_1" data-name="Layer 1" xmlns="http://www.w3.org/2000/svg" viewBox="0 0 40 40">
  <defs>
    <style>
      .cls-1 {
        fill: none;
        stroke: #9bc442;
        stroke-miterlimit: 10;
        stroke-width: 2px;
      }
    </style>
  </defs>
  <path class="cls-1" d="M29.91,26.5H9.76s-5.51-1.2-4.55-6.52c.95-5.32,4.39-4.89,4.39-4.89,0,0-.92-5.55,4.37-6.73,4.97-1.11,5.92,2.36,5.92,2.36,0,0,3.67-2.35,7.29-.86,2.92,1.2,2.74,4.64,2.92,5.49,0,0,4.47,.13,4.81,5.38,.34,5.25-4.98,5.77-4.98,5.77Z"/>
  <path class="cls-1" d="M8.51,32.63v-1.67c0-.58,.47-1.05,1.05-1.05H29.99c.58,0,1.05,.47,1.05,1.05v1.67"/>
  <rect class="cls-1" x="5.38" y="32.63" width="6.09" height="6.09" rx="1.85" ry="1.85"/>
  <rect class="cls-1" x="16.96" y="32.63" width="6.09" height="6.09" rx="1.85" ry="1.85"/>
  <rect class="cls-1" x="28.2" y="32.68" width="6.09" height="6.09" rx="1.85" ry="1.85"/>
  <circle class="cls-1" cx="8.43" cy="3.17" r="1.84"/>
  <circle class="cls-1" cx="15.98" cy="3.17" r="1.84"/>
  <circle class="cls-1" cx="23.87" cy="3.56" r="1.84"/>
  <path class="cls-1" d="M32.92,3.08c0,1.02-.83,1.84-1.84,1.84s-1.97-.83-1.97-1.84,.95-1.84,1.97-1.84,1.84,.83,1.84,1.84Z"/>
  <path class="cls-1" d="M9.37,4.76l2.49,1.95c.42,.33,.62,.86,.51,1.38l-.19,.93"/>
  <line class="cls-1" x1="15.98" y1="5.02" x2="15.98" y2="8.14"/>
  <line class="cls-1" x1="23.87" y1="5.4" x2="23.87" y2="9.42"/>
  <path class="cls-1" d="M30.08,4.66l-2.09,2.2c-.28,.29-.43,.68-.43,1.09v2.06"/>
  <line class="cls-1" x1="20.01" y1="26.5" x2="20.01" y2="32.68"/>
</svg>