<?xml version="1.0" encoding="UTF-8"?>
<svg version="1.1" xmlns="http://www.w3.org/2000/svg" width="1080" height="1080">
<path d="M0 0 C3.30998611 -0.00204352 6.61996658 -0.00579906 9.92995071 -0.00990677 C50.53917869 -0.05369854 50.53917869 -0.05369854 69.53416824 0.55262375 C71.29220528 0.60759521 71.29220528 0.60759521 73.08575821 0.66367722 C95.04357521 1.49321513 113.27780446 8.648612 129.03026199 24.12293625 C130.15754715 25.21348312 130.15754715 25.21348312 131.30760574 26.32606125 C140.22118221 35.53727911 146.82666917 47.05455686 151.03026199 59.12293625 C152.04841995 59.22783371 152.04841995 59.22783371 153.08714676 59.33485031 C167.75221406 60.87893357 181.7449675 62.5449282 195.59276199 67.87293625 C207.25334907 71.6887408 218.79312383 68.24376252 230.30223465 65.54798508 C275.70661568 54.98052661 335.03160979 47.64836086 377.35838699 72.040905 C380.33449487 73.97387959 383.19620047 75.98797114 386.03026199 78.12293625 C386.76889481 78.67723312 387.50752762 79.23153 388.26854324 79.80262375 C406.40217171 94.52079209 414.78541432 120.78356674 422.03026199 142.12293625 C422.32851883 142.98821945 422.62677567 143.85350266 422.93407059 144.74500656 C428.65248645 161.68870207 431.91961656 179.2702276 435.39134598 196.77918625 C439.56638615 218.83732026 439.56638615 218.83732026 447.90526199 239.56043625 C448.42104813 240.55249069 448.42104813 240.55249069 448.94725418 241.56458664 C451.87855367 247.08610123 455.29248113 252.11531428 459.03026199 257.12293625 C481.49148409 287.87868923 497.80220987 318.73098572 492.63182449 358.16151047 C491.51297637 364.2646118 489.8489932 370.19573787 488.03026199 376.12293625 C487.77373856 376.96791672 487.51721512 377.81289719 487.25291824 378.68348312 C486.21952152 382.07929675 485.18392748 385.47433912 484.13255692 388.86463547 C481.70686969 396.83395768 480.10971894 404.86162446 479.03026199 413.12293625 C478.9359993 413.8401384 478.8417366 414.55734055 478.74461746 415.29627609 C477.85143896 423.01212397 477.78695613 430.73806914 477.78026199 438.49793625 C477.77958725 439.2040303 477.77891251 439.91012436 477.77821732 440.6376152 C477.79591067 452.33821195 478.42928529 463.68222277 481.03026199 475.12293625 C481.19655106 475.85464035 481.36284012 476.58634445 481.53416824 477.34022141 C483.86894694 487.1181881 487.58951126 495.71101571 492.22557449 504.59949875 C499.27152471 518.35587775 497.40930165 530.29621735 492.88182449 544.80262375 C484.63775359 568.80486033 470.8411776 590.96970813 456.59276199 611.81043625 C456.13329178 612.49919846 455.67382156 613.18796066 455.20042801 613.89759445 C451.55680143 619.07752381 447.81524103 622.01796656 441.60838699 623.8299675 C433.93644431 624.17752195 428.37461305 621.13870797 421.72044754 617.76258469 C400.28889525 607.08345262 376.77631742 605.0646116 353.20604324 604.80653 C351.60750222 604.78591172 350.00896605 604.76491415 348.41043472 604.74355698 C344.23982595 604.68883879 340.06917217 604.63921185 335.89848709 604.59070969 C331.62791907 604.54012335 327.35741494 604.4846328 323.08690262 604.42957687 C314.73474338 604.32261174 306.38253006 604.22103472 298.03026199 604.12293625 C297.88782059 605.37236008 297.74537918 606.62178391 297.59862137 607.90906906 C295.94134758 622.44583485 285.73796438 635.77681876 274.96385574 645.02137375 C258.67009027 656.69387152 241.81053292 659.28045268 222.17088699 659.290905 C220.73515669 659.29412717 219.2994267 659.29749193 217.86369705 659.30099106 C214.86484899 659.30694926 211.86602961 659.30883442 208.86717606 659.30823898 C205.06059164 659.30813763 201.25419483 659.3217775 197.44765472 659.33901119 C194.48417219 659.35023531 191.5207335 659.35215502 188.5572319 659.35162926 C187.15568013 659.35279423 185.75412666 659.35713054 184.35259628 659.36496162 C161.15798691 659.48242617 140.51693918 654.32942558 123.61619949 637.74403 C122.76284012 636.87906906 121.90948074 636.01410812 121.03026199 635.12293625 C120.42440262 634.51578781 119.81854324 633.90863937 119.19432449 633.2830925 C111.25270408 624.69017518 103.03026199 610.26082 103.03026199 598.12293625 C91.26703896 598.13792341 79.50423674 598.18001396 67.74123478 598.25502682 C62.27689507 598.28905729 56.81282784 598.31436909 51.34837723 598.31849289 C46.05718691 598.32282781 40.76660876 598.35171247 35.47561073 598.39636803 C33.47504835 598.40917932 31.47441208 598.4137102 29.47381401 598.40909004 C5.07334953 598.36593758 -17.91364075 603.66672047 -37.96973801 618.12293625 C-38.87079269 618.76617844 -39.77184738 619.40942062 -40.70020676 620.072155 C-50.96323863 627.90332601 -58.57806158 637.72338477 -64.40723801 649.18543625 C-64.71298752 649.78493088 -65.01873703 650.38442551 -65.33375168 651.00208664 C-96.83166948 716.8312528 -96.65783072 793.56339983 -110.96973801 865.12293625 C131.08526199 864.62793625 131.08526199 864.62793625 378.03026199 864.12293625 C386.89076986 842.40355027 386.89076986 842.40355027 395.60448074 820.6268425 C396.17354497 819.19162275 396.74273802 817.75645408 397.31204605 816.32133102 C398.5036505 813.31713751 399.6946327 810.31269843 400.88518143 807.3080864 C402.76173865 802.57317902 404.64201589 797.83975375 406.52293777 793.10657883 C414.51023162 773.00559148 414.51023162 773.00559148 422.46495914 752.8917017 C424.66490156 747.31642147 426.87113192 741.74365837 429.08218288 736.17277431 C430.3604625 732.95107616 431.63529223 729.72811345 432.9014473 726.50162888 C434.29751501 722.9486449 435.70550124 719.40060052 437.11619949 715.853405 C437.51296387 714.83469315 437.90972824 713.81598129 438.31851578 712.76639938 C446.80564747 691.57443445 459.57779011 677.34489371 480.49510574 668.2518425 C486.08968669 665.88790836 491.71712588 663.61410169 497.36488724 661.3805809 C501.62562061 659.69396256 505.8579651 657.94932859 510.08104324 656.16981125 C512.2723755 655.25817502 514.4637783 654.34670837 516.65526199 653.43543625 C518.13603226 652.80230515 518.13603226 652.80230515 519.64671707 652.15638351 C528.26946888 648.62852612 536.99698946 646.5184045 545.95604324 650.040905 C551.63411755 653.00291363 554.72571309 656.19695337 557.03026199 662.12293625 C566.16197649 666.95138234 579.68655588 662.51221228 589.36229324 660.87293625 C590.69209435 660.65202329 592.02198641 660.4316572 593.35196304 660.21180344 C596.81341871 659.63834162 600.27377497 659.05851694 603.73387527 658.47694016 C609.28625851 657.54490083 614.84035896 656.62314047 620.39434242 655.70069504 C622.31551246 655.38072751 624.23622525 655.05801832 626.1569252 654.73524094 C645.81349254 651.45157485 666.19087596 649.76767114 683.90526199 660.93543625 C688.66567419 665.83586057 690.76321435 671.02518364 691.34276199 677.74793625 C691.16858159 686.29861044 686.7600493 693.00626554 681.71385574 699.603405 C673.49116057 707.32340265 663.20267909 711.41950406 652.85838699 715.48231125 C651.38623833 716.07016803 649.91449709 716.65904599 648.44313431 717.24886703 C645.33315419 718.49320306 642.22057693 719.73069088 639.10564041 720.96256638 C634.24461413 722.88513583 629.39015143 724.82389784 624.53660965 726.76527023 C618.0664266 729.35174554 611.59397159 731.93242466 605.11912918 734.50721359 C593.86885268 738.98128267 582.62416211 743.46900021 571.39146805 747.98707199 C568.46907915 749.15982643 565.54332034 750.32384785 562.61717606 751.48719406 C560.86668834 752.18958947 559.11635235 752.89236315 557.36619949 753.5955925 C556.59768661 753.8984668 555.82917374 754.20134109 555.03737259 754.5133934 C547.29560113 757.6455835 542.6351697 760.58419854 539.07313919 768.36652756 C537.39161336 772.81093619 536.5405682 777.26302956 535.79198074 781.94324875 C535.62148712 782.9279213 535.4509935 783.91259384 535.2753334 784.92710495 C534.74124544 788.0317294 534.22915732 791.13950216 533.71776199 794.24793625 C533.35658841 796.37058045 532.99397115 798.49297953 532.62987137 800.61512375 C531.74664467 805.78168183 530.88138371 810.9509977 530.03026199 816.12293625 C529.37026199 816.12293625 528.71026199 816.12293625 528.03026199 816.12293625 C528.96346968 809.112498 529.9755749 802.11610325 531.03026199 795.12293625 C531.20718582 793.93570969 531.38410965 792.74848312 531.56639481 791.52528 C532.1329136 787.80328089 532.73377045 784.08820158 533.34276199 780.37293625 C533.60706009 778.60804855 533.60706009 778.60804855 533.87669754 776.80750656 C535.32341455 768.26986433 537.6219557 761.45532237 544.71507645 756.09339523 C548.46751002 753.86304754 552.22066897 752.24980751 556.28026199 750.6737175 C557.10229614 750.34775085 557.92433029 750.02178421 558.77127457 749.68593979 C560.57112839 748.97303114 562.37222467 748.26325321 564.17439651 747.55622482 C568.11764163 746.00869252 572.05434838 744.44482857 575.99161148 742.88215256 C578.14642817 742.0270969 580.30155837 741.17283099 582.45697403 740.31928635 C594.8387521 735.41448599 607.19820904 730.45444779 619.55201912 725.47969913 C622.94667502 724.11270753 626.34184031 722.74702298 629.73851395 721.38505173 C638.18320415 717.99856008 646.61747649 714.58815756 655.03026199 711.12293625 C655.98676651 710.72916794 656.94327103 710.33539963 657.92876053 709.92969894 C660.43495412 708.88839356 662.93154204 707.82761067 665.42479324 706.75574875 C666.11248291 706.46996964 666.80017258 706.18419052 667.50870132 705.88975143 C674.26423865 702.92177568 679.69541064 698.54347485 683.34276199 692.06043625 C683.81326981 691.24445969 684.28377762 690.42848312 684.76854324 689.58778 C687.92371052 683.42397025 689.20455491 678.36744754 687.33104324 671.5955925 C684.62895721 664.91571438 680.93045861 662.12578699 674.39744949 659.30653 C658.51011591 653.72200323 643.27407376 654.5202642 627.01490021 657.37585258 C624.627145 657.79488189 622.23712346 658.19790943 619.84602737 658.59740829 C614.7800936 659.4465505 609.71749142 660.31451894 604.65526199 661.18543625 C598.75934441 662.19963905 592.86227158 663.20573868 586.96154785 664.19162941 C584.62175709 664.58673846 582.28481284 664.99631477 579.94765091 665.40664291 C572.80302515 666.62673708 566.21748729 667.69282072 559.03026199 666.12293625 C555.99803538 663.7109378 554.09043831 661.20718309 551.84276199 658.06043625 C548.53839939 654.07454886 544.05334636 652.07502414 539.03026199 651.12293625 C531.22081948 651.17418489 524.65531882 653.4494102 517.50291824 656.384655 C516.43335388 656.81293091 515.36378952 657.24120682 514.26181412 657.68246078 C512.01133231 658.58672692 509.76335702 659.49725377 507.51781082 660.41370773 C504.1118517 661.8026515 500.69796016 663.17037076 497.28221512 664.53504562 C495.08444725 665.42117077 492.88716506 666.30850164 490.69041824 667.197155 C489.68487396 667.60052582 488.67932968 668.00389664 487.64331436 668.41949081 C469.22595851 675.9683791 453.7850883 686.20261684 445.26854324 704.7205925 C444.92578857 705.45882248 444.58303391 706.19705246 444.22989273 706.95765305 C440.50345756 715.09929601 437.21550236 723.40794803 433.96388626 731.7480278 C432.37680949 735.81778219 430.77604955 739.88212275 429.17673111 743.9470787 C428.28444398 746.21554877 427.3928312 748.48428419 426.50183487 750.75326157 C421.0202836 764.70993934 415.49332755 778.64860301 409.96047115 792.58500862 C408.08405708 797.31147427 406.20984263 802.03880238 404.33769417 806.76695919 C403.13787235 809.79583536 401.9361413 812.82395177 400.73398972 815.85190392 C400.1856664 817.23396752 399.63801181 818.61629675 399.09121323 819.99896431 C393.24417042 834.78065707 387.10952162 849.43139215 381.03026199 864.12293625 C449.67026199 864.45293625 518.31026199 864.78293625 589.03026199 865.12293625 C589.03026199 865.78293625 589.03026199 866.44293625 589.03026199 867.12293625 C334.93026199 867.12293625 80.83026199 867.12293625 -180.96973801 867.12293625 C-180.96973801 866.46293625 -180.96973801 865.80293625 -180.96973801 865.12293625 C-158.52973801 865.12293625 -136.08973801 865.12293625 -112.96973801 865.12293625 C-112.63973801 862.15293625 -112.30973801 859.18293625 -111.96973801 856.12293625 C-111.48971489 853.37264639 -110.98561104 850.64341406 -110.43377304 847.90826035 C-110.28056589 847.13316236 -110.12735874 846.35806438 -109.96950895 845.55947858 C-109.46043474 842.98899461 -108.94595009 840.41962571 -108.43140793 837.85023117 C-108.06306541 835.99653719 -107.69503685 834.14278081 -107.32729721 832.28896713 C-106.3308634 827.27157464 -105.32948157 822.25518225 -104.32676482 817.23904204 C-103.69954768 814.10010662 -103.07342761 810.96095442 -102.44769859 807.82172203 C-100.26191497 796.85583571 -98.07217294 785.89074853 -95.87867355 774.92640305 C-93.83866153 764.72874502 -91.8072329 754.52940289 -89.77983397 744.32923049 C-88.03496192 735.55245807 -86.28411729 726.77689078 -84.52867395 718.00222665 C-83.4820519 712.77013308 -82.43778964 707.53759654 -81.39953804 702.30383492 C-80.42224462 697.37845741 -79.43747984 692.45463058 -78.4471302 687.53186226 C-78.08652174 685.73298015 -77.72849905 683.93357728 -77.37336731 682.13360596 C-73.53813963 662.71228338 -68.2921626 645.31755493 -54.96973801 630.12293625 C-54.40899582 629.44231125 -53.84825363 628.76168625 -53.27051926 628.06043625 C-50.7329551 624.99234861 -48.33468495 622.32309387 -44.96973801 620.12293625 C-46.26220265 617.23498894 -47.55099538 615.40167359 -49.90723801 613.31043625 C-73.71558048 589.94664789 -85.5142053 554.68991484 -86.15723801 521.93543625 C-85.94944525 504.35616891 -81.53719426 489.2531721 -74.90723801 473.12293625 C-59.19767359 434.76067588 -64.31554861 396.3888751 -79.15723801 358.68543625 C-87.9147426 336.42698 -89.83567487 316.44808592 -80.5910759 293.70643234 C-77.33219088 286.2199916 -72.85429001 276.71263758 -65.96973801 272.12293625 C-66.61336473 276.02200826 -68.51319491 278.72265518 -70.65723801 281.99793625 C-81.48724006 299.1411738 -87.1764553 318.80836891 -82.93922043 338.97376633 C-81.1202991 346.57388741 -78.18031234 353.56246789 -75.04517746 360.69984055 C-71.06446742 369.9176925 -68.39883724 379.39668895 -65.96973801 389.12293625 C-65.79039719 389.79340988 -65.61105637 390.46388351 -65.42628098 391.15467453 C-57.80777598 420.25933066 -62.95691722 451.48586784 -74.02100754 478.76063156 C-86.87443549 510.76520411 -85.19610282 543.56704062 -71.78223801 575.18543625 C-65.6336473 588.99255919 -57.14334355 601.00672828 -46.96973801 612.12293625 C-45.94493332 613.32176437 -45.94493332 613.32176437 -44.89942551 614.54481125 C-43.14933767 616.31316463 -43.14933767 616.31316463 -41.14161301 616.134655 C-37.99689028 614.66975718 -35.13405022 612.80305086 -32.21973801 610.93543625 C-17.53114025 601.84034048 -1.04469729 596.63822174 16.26536942 596.73817062 C17.42309357 596.73279785 18.58081772 596.72742508 19.77362442 596.7218895 C22.26488142 596.71217246 24.75617203 596.70914877 27.24744606 596.71224594 C31.19537638 596.71675436 35.14302043 596.70306182 39.09088516 596.68384933 C48.17766267 596.64302375 57.26443032 596.63146489 66.35128403 596.62031937 C74.69678252 596.60978223 83.04214187 596.5928948 91.38755494 596.55222368 C95.9326316 596.53105243 100.47738516 596.53270283 105.02249527 596.53834152 C107.40944647 596.52899903 109.79639462 596.51882974 112.18333817 596.50770187 C113.25421677 596.5138501 114.32509537 596.51999832 115.42842484 596.52633286 C122.27125498 596.47046756 129.50812642 596.1694762 134.91171932 591.49553299 C141.2011148 584.93713149 141.33907709 577.23491743 141.44432449 568.5955925 C141.47337372 567.11221642 141.47337372 567.11221642 141.5030098 565.59887314 C141.56246821 562.46114673 141.60905555 559.32338297 141.65526199 556.18543625 C141.69347283 554.04935314 141.73252635 551.91328492 141.77244949 549.77723312 C141.86814172 544.55926706 141.95328655 539.3412102 142.03026199 534.12293625 C142.36026199 534.12293625 142.69026199 534.12293625 143.03026199 534.12293625 C143.13193875 541.11540388 143.2018437 548.10767983 143.24998856 555.10071945 C143.27006562 557.47807057 143.29733313 559.85537255 143.33201981 562.23255539 C143.38070814 565.6557747 143.40327053 569.07833931 143.42088699 572.5018425 C143.44153214 573.55940247 143.46217728 574.61696243 143.48344803 575.70656967 C143.48568461 583.11320229 142.35578597 587.53280069 137.21385574 593.08387375 C136.63764481 593.55051437 136.06143387 594.017155 135.46776199 594.49793625 C134.88897293 594.98004562 134.31018387 595.462155 133.71385574 595.95887375 C130.38141943 598.26297125 127.40340608 598.24131267 123.48729324 598.2205925 C122.41414871 598.21736984 121.34100418 598.21414719 120.23534012 598.21082687 C119.11578934 598.20244797 117.99623856 598.19406906 116.84276199 598.18543625 C115.71160965 598.18092453 114.58045731 598.17641281 113.41502762 598.17176437 C110.62005273 598.15997123 107.82518379 598.14351275 105.03026199 598.12293625 C111.86390922 619.24966979 121.84427102 637.16020581 142.16405106 648.0162468 C153.03237888 653.55485728 163.82768922 656.21381308 176.02855301 656.28406906 C176.68983704 656.28903397 177.35112106 656.29399887 178.032444 656.29911423 C180.19969642 656.31360302 182.36687554 656.32051737 184.53416824 656.32606125 C185.65674687 656.33030231 185.65674687 656.33030231 186.80200386 656.33462906 C190.76684668 656.34957179 194.7316536 656.35883083 198.69652176 656.36317062 C202.751999 656.36863146 206.80713648 656.39262277 210.86250782 656.42114258 C214.01561759 656.43995077 217.16864869 656.44498422 220.32180977 656.4465065 C221.8146531 656.44949549 223.30749634 656.45739351 224.80028343 656.47069168 C245.50501791 656.64189335 262.87224942 651.72701176 278.57713699 637.8768425 C287.41356948 628.84235205 293.20305931 616.37414786 296.03026199 604.12293625 C294.90491043 604.13453781 293.77955887 604.14613937 292.62010574 604.1580925 C291.06932619 604.16749116 289.51854479 604.17658908 287.96776199 604.18543625 C287.23492996 604.19381516 286.50209793 604.20219406 285.74705887 604.21082687 C278.09624176 604.2431088 270.73663471 603.63669443 263.03026199 603.12293625 C263.03026199 579.03293625 263.03026199 554.94293625 263.03026199 530.12293625 C259.07026199 531.11293625 255.11026199 532.10293625 251.03026199 533.12293625 C201.36756173 542.31208453 140.38604062 533.0559697 97.79588699 504.83778 C91.64452144 500.54984199 86.34455278 495.38453576 81.03026199 490.12293625 C80.36768387 489.52094406 79.70510574 488.91895187 79.02244949 488.2987175 C56.168168 467.19836924 45.91521023 432.21051254 44.03026199 402.12293625 C43.7604421 393.73697771 43.93269117 385.34628557 44.05369949 376.95887375 C44.07993339 374.58564396 44.10519477 372.21240325 44.12953568 369.83915329 C44.19553325 363.65457218 44.27456057 357.47022684 44.3564949 351.28583908 C44.43806034 344.95037875 44.50703629 338.61478197 44.57713699 332.27918625 C44.71600106 319.89360625 44.86865911 307.508239 45.03026199 295.12293625 C40.86363487 295.07538871 36.6970785 295.04674716 32.53026199 295.02137375 C31.35721512 295.00775803 30.18416824 294.9941423 28.97557449 294.98011398 C15.29681943 294.91767585 3.23379787 297.71515782 -7.18458176 307.12293625 C-16.59409017 316.93545899 -19.48211214 327.79645329 -19.25098801 341.0018425 C-18.80315803 350.76677503 -14.02173324 359.52337409 -7.65723801 366.74793625 C-6.77036301 367.53168625 -5.88348801 368.31543625 -4.96973801 369.12293625 C-4.42962082 369.61664719 -3.88950363 370.11035812 -3.33301926 370.61903 C4.65282487 377.33249644 14.65984724 379.8057896 24.96385574 379.46278 C29.5170238 378.95816137 33.88813153 377.93833041 38.31541824 376.77918625 C41.03026199 376.12293625 41.03026199 376.12293625 44.03026199 376.12293625 C44.03026199 376.78293625 44.03026199 377.44293625 44.03026199 378.12293625 C29.85903547 382.65658819 16.52065295 384.15444285 2.51463699 378.02137375 C-8.98580682 371.95821459 -16.09992124 363.20338881 -20.40723801 350.87293625 C-23.8531982 338.29741919 -22.84581238 326.10222018 -16.61426926 314.6268425 C-9.41415241 303.18000795 -0.03790642 296.84252242 13.03026199 293.24793625 C23.28268261 291.13275238 34.77348507 291.07158087 45.03026199 293.12293625 C45.03026199 271.01293625 45.03026199 248.90293625 45.03026199 226.12293625 C34.36455887 226.15774094 23.69885574 226.19254562 12.70994949 226.228405 C5.93781188 226.24374039 -0.83431308 226.25830727 -7.60645676 226.26942062 C-18.34657233 226.28718765 -29.08661705 226.30801885 -39.8266716 226.34925461 C-47.65030025 226.37927846 -55.47387114 226.3985399 -63.2975558 226.40520173 C-67.43515293 226.40909213 -71.5725849 226.41815144 -75.71012878 226.44012642 C-79.6154845 226.46069747 -83.52060919 226.46672907 -87.42601395 226.46225929 C-88.84887198 226.46307538 -90.27173887 226.46891709 -91.69454956 226.48055267 C-112.87526866 226.64506833 -132.02147622 220.81063274 -147.59473801 206.06043625 C-153.38439154 200.03092564 -157.93339139 193.44422428 -161.96973801 186.12293625 C-162.39050613 185.48043427 -162.81127426 184.83793228 -163.24479294 184.17596054 C-168.91305451 174.19317264 -167.65137195 162.74824582 -167.56348801 151.6424675 C-167.56177387 149.34239388 -167.56184566 147.0423183 -167.56361008 144.74224472 C-167.56196135 139.93169467 -167.54335174 135.12161312 -167.51173019 130.31116867 C-167.47216717 124.18660989 -167.46767525 118.06266674 -167.47519302 111.93800449 C-167.47828417 107.18920008 -167.46606461 102.44053046 -167.44906235 97.69175911 C-167.44209598 95.43583842 -167.43889996 93.17990246 -167.43975449 90.92397118 C-167.4254692 66.09920079 -164.68275143 43.1547765 -146.71973801 24.37293625 C-141.56833208 19.42589526 -136.19662834 15.59246459 -129.96973801 12.12293625 C-129.19372238 11.6743425 -128.41770676 11.22574875 -127.61817551 10.76356125 C-116.44021492 4.70727491 -103.51039366 1.08092425 -90.84083176 0.80653 C-89.98837875 0.78565826 -89.13592575 0.76478653 -88.25764084 0.74328232 C-85.30761329 0.67524233 -82.35751136 0.61678669 -79.40723801 0.56043625 C-78.36338943 0.53958969 -77.31954086 0.51874313 -76.24406052 0.49726486 C-50.83220306 0.01165963 -25.41559937 0.01231785 0 0 Z M-86.87989426 2.46668625 C-88.10758026 2.4918129 -89.33526627 2.51693954 -90.60015488 2.54282761 C-110.46712395 3.18858133 -128.15106901 10.98284215 -142.96973801 24.12293625 C-143.92299973 24.95244797 -143.92299973 24.95244797 -144.89551926 25.7987175 C-157.84024004 37.82496586 -164.46540286 55.98399584 -165.28403854 73.35505295 C-165.48443734 79.60737571 -165.52074503 85.86003472 -165.54395676 92.11512375 C-165.55871063 94.43333132 -165.57359026 96.7515381 -165.58858871 99.06974411 C-165.61544479 103.9092803 -165.62909606 108.7486646 -165.63550949 113.58826828 C-165.64638313 119.7502686 -165.70816405 125.91063337 -165.78222561 132.07215309 C-165.83088358 136.85440475 -165.84304578 141.63626902 -165.84557152 146.41874695 C-165.85274111 148.68871355 -165.8729799 150.95868233 -165.90727425 153.22840118 C-166.10756889 167.57493797 -164.82514423 177.95839397 -156.96973801 190.12293625 C-156.05952141 191.59221069 -156.05952141 191.59221069 -155.1309166 193.09116745 C-144.95433075 209.03507492 -129.92143164 218.3317053 -111.96973801 223.12293625 C-107.32935452 224.06027328 -102.83714027 224.25916396 -98.12014389 224.23405075 C-97.34816491 224.23404977 -96.57618592 224.23404878 -95.78081363 224.23404777 C-93.20386905 224.23301779 -90.62699242 224.22501202 -88.05006027 224.21717453 C-86.19848806 224.21529456 -84.34691523 224.2139501 -82.49534225 224.21310043 C-78.51265089 224.21081972 -74.5299722 224.20610137 -70.54728508 224.1999054 C-64.2481348 224.1914922 -57.94904537 224.19694024 -51.64989853 224.20591354 C-50.58613497 224.20738455 -49.52237141 224.20885556 -48.42637259 224.21037114 C-46.25148957 224.21344171 -44.07660662 224.21656173 -41.90172374 224.21973014 C-27.24032537 224.24090912 -12.57912664 224.25458202 2.08226395 224.22254562 C11.97777891 224.20102365 21.87294405 224.2041482 31.76843601 224.23595417 C37.00302848 224.2518085 42.23695176 224.2550326 47.47151375 224.22819519 C52.39419943 224.20317621 57.31576318 224.21069661 62.23839569 224.24307442 C64.04313748 224.24916505 65.84796561 224.24332697 67.65262032 224.22458076 C81.29466767 224.09267241 81.29466767 224.09267241 85.62622166 226.6639204 C87.38847818 228.39735106 88.70927656 230.04387479 90.03026199 232.12293625 C90.99282913 233.18508347 90.99282913 233.18508347 91.97484207 234.2686882 C92.47395096 234.85609787 92.97305984 235.44350754 93.48729324 236.0487175 C97.11439908 240.24985402 100.89794277 244.28477251 104.71776199 248.31043625 C109.57776542 253.45299149 114.42322823 258.6067711 119.21776199 263.81043625 C119.6906868 264.31953537 120.1636116 264.82863449 120.65086746 265.35316086 C123.28649312 268.19653161 125.86901164 271.07609807 128.41307449 274.0018425 C128.98517654 274.64742111 129.55727859 275.29299973 130.14671707 275.95814133 C131.24642288 277.19968338 132.33315091 278.45289112 133.40404129 279.7193718 C136.18044847 282.82383094 137.59614713 284.00400067 141.73729324 285.13856125 C145.16341973 285.4335864 145.16341973 285.4335864 147.90526199 283.12293625 C151.10959951 278.59916564 151.29140576 275.05310582 150.55784988 269.63123703 C149.84431229 264.19884887 149.79621912 258.77536154 149.71385574 253.30262375 C149.69339188 252.07967606 149.67292801 250.85672836 149.65184402 249.59672165 C149.59685036 246.13559756 149.54706392 242.67446686 149.49945068 239.21323776 C149.4675875 236.98573769 149.43204464 234.75832354 149.39552689 232.53089523 C149.03655252 210.30549909 149.02668894 188.08875383 149.19878668 165.8619591 C149.23922346 160.59146547 149.27273045 155.32096286 149.30200577 150.05039597 C149.30622349 149.29996863 149.3104412 148.5495413 149.31478673 147.77637374 C149.33182756 144.73227303 149.34875345 141.68817201 149.36493027 138.64406657 C149.41388286 129.50952414 149.48891659 120.37602568 149.60513127 111.24208438 C149.67745112 105.3965722 149.72004745 99.55127996 149.74139678 93.70536244 C149.7550285 90.28219988 149.7822231 86.86052782 149.84569168 83.43789673 C150.10287796 68.06194499 149.83739705 56.07383393 141.03026199 43.12293625 C140.41255432 42.14860641 139.79484665 41.17427658 139.15842056 40.1704216 C127.44971668 22.05397898 110.3676313 8.508539 89.09276199 3.93543625 C71.59465364 1.25787822 53.48067428 1.97132545 35.83834291 1.98861074 C32.35183409 1.99119842 28.86532748 1.98877876 25.37881851 1.98722458 C19.51661576 1.985418 13.6544257 1.98776579 7.79222488 1.99256516 C1.84918263 1.99737602 -4.09383446 1.99739985 -10.03687668 1.99256516 C-48.46170648 1.89634307 -48.46170648 1.89634307 -86.87989426 2.46668625 Z M221.03026199 69.43543625 C210.27503314 71.92076126 202.12064826 71.8127961 191.65916824 68.27528 C179.90081187 64.54146393 167.60824448 62.06159311 155.25291824 62.10731125 C154.06001175 62.11069504 154.06001175 62.11069504 152.84300613 62.11414719 C152.24480057 62.11704758 151.646595 62.11994797 151.03026199 62.12293625 C150.95630266 66.22708476 150.8836991 70.33125619 150.81151199 74.43543625 C150.78868149 75.72677979 150.76585098 77.01812332 150.74232864 78.34859848 C150.61717193 85.53191794 150.50585186 92.71520149 150.41649246 99.8990593 C150.38848066 102.11201587 150.36033407 104.32497065 150.33205414 106.53792381 C150.3130896 108.02389191 150.29434048 109.50986277 150.27580261 110.99583626 C150.16488731 119.6816433 149.97993828 128.35565798 149.63542557 137.0360527 C149.47054927 141.33923014 149.35541253 145.64291794 149.24876785 149.94788742 C149.18742628 151.90777481 149.10275504 153.86710012 148.9924202 155.82484055 C148.10314789 171.85826666 152.90736257 180.88733483 163.03026199 193.12293625 C164.06483084 194.41437256 165.09827287 195.70671273 166.13035965 197.00013351 C182.86688379 217.84342492 204.85710898 234.06500605 228.03026199 247.12293625 C228.82351883 247.57491379 229.61677567 248.02689133 230.43407059 248.49256516 C261.76634092 266.27542467 295.17603494 279.71141111 329.63817215 290.09705734 C331.91264351 290.78493187 334.18317859 291.4859494 336.44969559 292.19959641 C349.60103686 296.32436098 360.78439451 298.8150496 374.54588699 297.478405 C387.94652622 296.20528705 402.77066163 299.81280177 413.25682449 308.46278 C422.41948462 317.04016007 427.0757124 325.62289074 428.21776199 338.18543625 C428.61004387 350.34617456 424.07289617 362.02995806 416.03026199 371.12293625 C403.65421887 381.56657966 390.82142636 383.97337381 375.03026199 383.12293625 C370.98611453 382.63389633 367.0145238 381.96808269 363.03026199 381.12293625 C362.99159012 383.04879562 362.99159012 383.04879562 362.95213699 385.01356125 C361.90087731 421.98403607 349.34197608 456.11991478 325.03026199 484.12293625 C324.32256668 484.9530925 323.61487137 485.78324875 322.88573074 486.63856125 C307.38361047 504.40315313 287.15645565 520.49275369 265.03026199 529.12293625 C265.00713696 538.49329563 264.98934609 547.86364526 264.97844982 557.23402691 C264.97322134 561.58462084 264.96612434 565.93519531 264.95482254 570.28577805 C264.9439924 574.48083883 264.93798489 578.67588084 264.93538475 582.87095451 C264.93353073 584.47500593 264.92991055 586.07905627 264.92453194 587.68309975 C264.91731981 589.9221014 264.91627112 592.16102454 264.9167366 594.40003586 C264.91451599 595.67688751 264.91229538 596.95373917 264.91000748 598.26928329 C264.70358111 601.0218248 264.70358111 601.0218248 266.03026199 602.12293625 C269.02396387 602.23772588 271.99551444 602.28780971 274.99022293 602.29652023 C275.93199387 602.30320724 276.8737648 602.30989426 277.84407425 602.31678391 C279.90060737 602.33088061 281.95715658 602.34275975 284.01371384 602.3527317 C287.28769932 602.36914562 290.56157015 602.39239546 293.83549881 602.41762924 C303.14905917 602.488311 312.46267221 602.54788605 321.77635574 602.59974289 C327.47050406 602.63193038 333.16453018 602.67332389 338.85857773 602.71993828 C341.01266347 602.73575501 343.16677744 602.74816775 345.32090378 602.75684547 C362.80637805 602.82816612 380.81388185 602.94125472 397.84276199 607.37293625 C398.69966629 607.58692062 399.55657059 607.800905 400.43944168 608.02137375 C410.29118442 610.57132278 420.20043083 613.62945153 428.90526199 618.99793625 C433.43930367 621.6716364 437.88297469 622.26415438 443.03026199 621.12293625 C450.42664563 618.12957628 453.59405682 612.62535255 457.78026199 606.06043625 C458.47764481 604.98858078 459.17502762 603.91672531 459.89354324 602.81238937 C469.19215634 588.40210775 477.72157704 573.64215951 485.03026199 558.12293625 C485.58584793 556.95375656 486.14143387 555.78457687 486.71385574 554.5799675 C490.62165553 545.95552159 493.26887256 537.39894907 495.03026199 528.12293625 C495.32416824 526.66694016 495.32416824 526.66694016 495.62401199 525.18153 C496.56868963 515.95780247 491.58663807 508.34577054 487.57713699 500.37293625 C467.88100805 460.75132024 474.7678775 411.73145286 487.13353348 371.18787766 C496.03362928 341.91062781 491.13746752 315.14522929 477.29246902 288.45154953 C472.21708655 279.08810698 466.08648668 270.46804038 459.6733284 261.98548508 C445.72423654 243.50638006 439.07999163 224.62192053 434.57786942 202.10493088 C433.74044538 197.9282416 432.86965364 193.75846685 432.00291824 189.58778 C431.83281235 188.76656662 431.66270645 187.94535324 431.48744583 187.09925461 C418.88100276 125.16277849 418.88100276 125.16277849 381.19041824 77.09949875 C369.47705983 69.77322018 357.52910266 65.02337422 344.03026199 62.12293625 C342.90998611 61.87736984 342.90998611 61.87736984 341.7670784 61.6268425 C302.60044561 53.50662392 259.31722982 60.38518849 221.03026199 69.43543625 Z M150.03026199 178.12293625 C149.95613597 195.46728473 149.99054233 212.80134523 150.35448074 230.1424675 C150.38420718 231.6256895 150.41375838 233.10891503 150.44313431 234.59214401 C150.56280623 240.58188657 150.68320713 246.57151526 150.82933426 252.56068039 C150.92043029 256.31496018 150.99656045 260.06928457 151.06271172 263.82408333 C151.09026172 265.22957126 151.12332154 266.63496347 151.16225624 268.04018211 C151.21539419 269.9773413 151.24768814 271.91503837 151.27904129 273.85267258 C151.30346802 274.94703125 151.32789474 276.04138992 151.35306168 277.16891098 C150.98319864 280.55362547 150.04611498 282.40488798 148.03026199 285.12293625 C146.16307449 285.93543625 146.16307449 285.93543625 144.15526199 286.12293625 C143.49784012 286.20543625 142.84041824 286.28793625 142.16307449 286.37293625 C135.77346676 285.62397124 131.67578123 279.82695965 127.59276199 275.37293625 C126.89118973 274.61722336 126.18961746 273.86151047 125.46678543 273.08289719 C124.01898655 271.52287595 122.57351817 269.96068872 121.13035965 268.39637375 C118.6048373 265.66239745 116.06201767 262.94499411 113.51756668 260.22864914 C107.73083502 254.04751545 101.97858632 247.83453818 96.23729324 241.6112175 C95.7478775 241.1046814 95.25846176 240.59814529 94.75421524 240.07625961 C93.03026199 238.12293625 93.03026199 238.12293625 90.96780777 235.18365097 C87.36884989 230.30603966 84.01810732 226.10390589 77.76007462 225.14632797 C72.93741415 224.79909712 68.16062413 225.07089975 63.34276199 225.37293625 C61.65870926 225.43324891 59.97444695 225.48798082 58.29002762 225.53699875 C54.19818407 225.66808415 50.11658021 225.8743341 46.03026199 226.12293625 C45.9599309 249.11620095 45.90715641 272.10944771 45.87482548 295.10279846 C45.85940931 305.78093453 45.83842116 316.45900346 45.80394363 327.13709641 C45.77387948 336.45282056 45.75464893 345.76849605 45.74799651 355.08426738 C45.74411284 360.00899459 45.7350975 364.93358266 45.71307182 369.85826492 C45.69243663 374.51053558 45.68648167 379.16261216 45.69093895 383.81492424 C45.69012565 385.50616963 45.68432322 387.19742274 45.67264557 388.88862801 C45.56922994 404.66354637 47.1324295 420.50957141 51.65526199 435.68543625 C52.03267532 436.9703093 52.03267532 436.9703093 52.41771317 438.28113937 C58.32595708 457.4437726 68.18215951 473.66958453 82.03026199 488.12293625 C82.72635574 488.88219406 83.42244949 489.64145187 84.13963699 490.4237175 C111.86742909 519.72005258 160.82131593 531.92359282 199.66698074 534.0330925 C201.33180496 534.07756516 201.33180496 534.07756516 203.03026199 534.12293625 C203.76712234 534.14340012 204.5039827 534.16386398 205.26317215 534.18494797 C218.62232065 534.50396454 231.78254024 533.89012999 245.03026199 532.12293625 C245.88539383 532.00998215 246.74052567 531.89702805 247.62157059 531.78065109 C274.13857191 528.02696529 294.72432835 511.80103007 314.03026199 494.12293625 C314.79725418 493.42813156 315.56424637 492.73332687 316.35448074 492.0174675 C334.83175773 474.43969284 348.40510857 450.29151995 356.03026199 426.12293625 C356.2743782 425.3851091 356.51849442 424.64728195 356.77000809 423.88709641 C363.09364088 403.92409216 361.53155077 382.7138494 361.09135818 362.0497551 C361.03053286 359.13591232 360.97722648 356.22202548 360.92625809 353.30799484 C360.6061582 335.22455551 360.13344268 317.17719889 359.03026199 299.12293625 C358.32047195 298.94867111 357.61068192 298.77440598 356.87938309 298.59486008 C301.49233678 284.82064067 241.98259365 264.36796587 197.03026199 228.12293625 C196.20139481 227.48356125 195.37252762 226.84418625 194.51854324 226.18543625 C177.40762249 212.86201915 163.99144906 197.81180046 152.16258621 179.67664719 C151.78891922 179.16392258 151.41525223 178.65119797 151.03026199 178.12293625 C150.70026199 178.12293625 150.37026199 178.12293625 150.03026199 178.12293625 Z M361.03026199 299.12293625 C360.88715011 315.46411139 361.09308626 331.78650423 361.46776199 348.12293625 C361.48741013 349.03267197 361.50705826 349.94240768 361.52730179 350.87971115 C361.83359156 365.0270786 361.83359156 365.0270786 363.03026199 379.12293625 C376.56768198 383.30616705 390.96325665 384.5077249 404.03026199 378.12293625 C406.97699756 376.37863394 409.49044951 374.41353957 412.03026199 372.12293625 C412.71991043 371.52481125 413.40955887 370.92668625 414.12010574 370.31043625 C422.68429863 362.40012028 426.88779229 352.48669542 427.40526199 340.93543625 C427.11792979 328.00548703 421.91921792 318.65531712 412.84276199 309.93543625 C398.62136993 297.86736644 378.82308593 296.33719109 361.03026199 299.12293625 Z " fill="#23FF04" transform="translate(285.9697380065918,69.8770637512207)"/>
<path d="M0 0 C1.58087964 -0.01649107 3.16168684 -0.04369026 4.7421875 -0.08203125 C21.26136427 -0.48037584 21.26136427 -0.48037584 26.17599487 3.72305298 C31.52074136 9.20538476 32.21742709 15.2328131 32.21539307 22.64208984 C32.19474792 23.80385742 32.17410278 24.965625 32.15283203 26.16259766 C32.14717224 27.37206055 32.14151245 28.58152344 32.13568115 29.82763672 C32.11339316 33.66886936 32.06320797 37.50914964 32.01220703 41.35009766 C31.99213237 43.96336538 31.9738833 46.57664781 31.95751953 49.18994141 C31.91355302 55.57698195 31.84671561 61.96347174 31.76220703 68.35009766 C33.17699341 68.31867676 33.17699341 68.31867676 34.62036133 68.28662109 C38.13348228 68.21828338 41.64589288 68.16822018 45.15942383 68.13037109 C46.67744113 68.11030563 48.19538162 68.08304631 49.71313477 68.04833984 C51.90025825 67.99959373 54.08635655 67.9770796 56.27392578 67.95947266 C57.5883667 67.93852539 58.90280762 67.91757812 60.25708008 67.89599609 C64.30971489 68.42102923 65.90882738 69.488403 68.76220703 72.35009766 C70.30641065 75.4385049 69.90280903 78.69129481 69.8959198 82.08053589 C69.89818536 82.88796584 69.90045091 83.6953958 69.90278512 84.52729332 C69.90914357 87.24802757 69.90829458 89.96871224 69.9074707 92.68945312 C69.91046106 94.63397283 69.91386329 96.57849194 69.91764832 98.52301025 C69.92650538 103.81638318 69.92882715 109.10973995 69.9294641 114.40311956 C69.93041189 118.8167876 69.9340887 123.23045185 69.9376362 127.64411843 C69.94578733 138.05473975 69.94821984 148.46535242 69.94750977 158.87597656 C69.94690887 169.62663231 69.95746152 180.37723789 69.97325343 191.12788093 C69.98631532 200.34744277 69.99169423 209.5669882 69.99105436 218.78655922 C69.99079896 224.29756247 69.993673 229.80852117 70.00423241 235.31951523 C70.01389062 240.50196089 70.01400825 245.6843192 70.00671577 250.86676788 C70.00566707 252.77113344 70.00804965 254.67550437 70.01407623 256.57986069 C70.02175894 259.1752416 70.01717613 261.77031809 70.00944519 264.36569214 C70.01458875 265.1230843 70.01973232 265.88047645 70.02503175 266.66081989 C70.00062869 270.35642645 69.96633089 273.2923298 67.76220703 276.35009766 C64.48763244 278.53314738 63.52473591 278.60602387 59.72756958 278.63098145 C58.68731628 278.64240173 57.64706299 278.65382202 56.57528687 278.66558838 C55.43443634 278.6678241 54.29358582 278.67005981 53.11816406 278.67236328 C51.9163147 278.68229309 50.71446533 278.6922229 49.47619629 278.70245361 C46.17855776 278.72667102 42.88117286 278.7415866 39.58347559 278.75047493 C37.52287229 278.75633954 35.46229119 278.76454968 33.40169907 278.77348328 C26.9533553 278.80082603 20.50506231 278.8201633 14.05666459 278.82788706 C6.61483862 278.83684999 -0.8262529 278.8719545 -8.26785553 278.92988825 C-14.02167733 278.9731265 -19.77529252 278.99329576 -25.52927506 278.9959693 C-28.96531867 278.99806501 -32.40067158 279.0098682 -35.83654404 279.04560852 C-39.66959061 279.08470547 -43.50171966 279.07599122 -47.33496094 279.06298828 C-48.471763 279.08141785 -49.60856506 279.09984741 -50.77981567 279.11883545 C-52.34865509 279.10212799 -52.34865509 279.10212799 -53.94918823 279.08508301 C-54.85510145 279.08801613 -55.76101467 279.09094925 -56.69437981 279.09397125 C-59.77109439 278.19412266 -61.35587518 276.71288749 -63.26914608 274.16143 C-64.97718494 270.96746316 -64.9183961 267.70621389 -64.85925293 264.18333435 C-64.86564175 263.37727582 -64.87203057 262.57121728 -64.878613 261.74073273 C-64.89383615 259.04808079 -64.87342036 256.35690662 -64.85302734 253.66430664 C-64.85652932 251.73066725 -64.86218877 249.79703074 -64.86984253 247.86340332 C-64.88408807 242.61753095 -64.86703162 237.37218289 -64.84355736 232.12636065 C-64.82345033 226.63673775 -64.82932779 221.14713664 -64.83166504 215.65748596 C-64.83161147 206.43978222 -64.8118552 197.22228349 -64.77978516 188.00463867 C-64.74288163 177.34589138 -64.73411116 166.68741253 -64.74108267 156.02860969 C-64.74738617 145.77593893 -64.73663688 135.52336027 -64.71711731 125.27070808 C-64.70894 120.90677644 -64.70623437 116.54289184 -64.70780945 112.17895317 C-64.7086879 107.04151456 -64.69448256 101.90433138 -64.66858292 96.76696014 C-64.66141649 94.88076325 -64.65933978 92.99453919 -64.66270065 91.10833168 C-64.66641115 88.53523579 -64.65168319 85.96288709 -64.63220215 83.38987732 C-64.63753007 82.64201743 -64.642858 81.89415754 -64.64834738 81.12363523 C-64.59041479 76.69402472 -63.98675336 73.85895792 -61.23779297 70.35009766 C-57.64335114 67.9538031 -55.08917645 68.09228435 -50.94482422 68.15478516 C-50.23879562 68.15761505 -49.53276703 68.16044495 -48.80534363 68.1633606 C-46.55348664 68.17454302 -44.30202945 68.19964345 -42.05029297 68.22509766 C-40.52230393 68.23512999 -38.99430864 68.2442554 -37.46630859 68.25244141 C-33.72331634 68.27447593 -29.98062241 68.30899199 -26.23779297 68.35009766 C-26.24667542 67.69134644 -26.25555786 67.03259521 -26.26470947 66.35388184 C-26.35344935 59.47543038 -26.41363792 52.59714251 -26.45751953 45.71826172 C-26.47759025 43.15374136 -26.50485298 40.58926651 -26.53955078 38.02490234 C-26.58826652 34.33110295 -26.61080809 30.63791057 -26.62841797 26.94384766 C-26.64906311 25.80395386 -26.66970825 24.66406006 -26.690979 23.48962402 C-26.6930138 16.21238481 -25.98796864 10.18332919 -20.71929932 4.79797363 C-14.29406309 -0.74284973 -8.04135436 0.06138438 0 0 Z M-19.29638672 6.06884766 C-19.75142578 6.65666016 -20.20646484 7.24447266 -20.67529297 7.85009766 C-21.14837891 8.43791016 -21.62146484 9.02572266 -22.10888672 9.63134766 C-24.26529113 12.91445472 -24.38087177 15.83306999 -24.44311523 19.64770508 C-24.46329712 20.74369019 -24.483479 21.83967529 -24.50427246 22.96887207 C-24.52074829 24.1194812 -24.53722412 25.27009033 -24.55419922 26.45556641 C-24.57285034 27.51408813 -24.59150146 28.57260986 -24.61071777 29.66320801 C-24.67906971 33.62125214 -24.73918377 37.57943507 -24.80029297 41.53759766 C-24.94466797 50.38572266 -25.08904297 59.23384766 -25.23779297 68.35009766 C-7.08779297 68.35009766 11.06220703 68.35009766 29.76220703 68.35009766 C29.84470703 59.41947266 29.92720703 50.48884766 30.01220703 41.28759766 C30.06683105 37.07610962 30.06683105 37.07610962 30.12255859 32.77954102 C30.13424669 30.54134892 30.14443823 28.30314829 30.15283203 26.06494141 C30.18352783 24.33733582 30.18352783 24.33733582 30.21484375 22.5748291 C30.21772553 15.92297073 29.77859618 11.73989643 25.76220703 6.35009766 C19.12392938 0.67262335 11.22903641 1.13950691 3.01220703 1.10009766 C1.95259766 1.07947266 0.89298828 1.05884766 -0.19873047 1.03759766 C-7.34592727 1.0021277 -13.57436492 1.29144805 -19.29638672 6.06884766 Z M-62.23779297 75.35009766 C-62.72868509 78.22006487 -62.91149933 80.49489933 -62.86598206 83.35864258 C-62.87307644 84.15976314 -62.88017083 84.96088369 -62.8874802 85.78628063 C-62.90506932 88.46819864 -62.88695149 91.1486691 -62.86889648 93.83056641 C-62.87403497 95.75420797 -62.8813157 97.67784483 -62.89057922 99.60147095 C-62.90911044 104.82466148 -62.89614366 110.04734225 -62.87648892 115.27051163 C-62.86011541 120.73479059 -62.86891351 126.19903693 -62.87400818 131.66333008 C-62.87853058 140.83992668 -62.86265014 150.01631954 -62.8347168 159.19287109 C-62.80266432 169.80449326 -62.80268021 180.41574794 -62.81993157 191.0273962 C-62.83579147 201.23255461 -62.82906652 211.43757821 -62.81199455 221.64273071 C-62.80511925 225.98714788 -62.80616145 230.33145714 -62.81353951 234.6758728 C-62.82119666 239.79119293 -62.80909466 244.9060945 -62.7816906 250.02134323 C-62.77479972 251.89947644 -62.7747163 253.7776487 -62.78190613 255.65578079 C-62.79058561 258.21817299 -62.77467107 260.779269 -62.75245667 263.34155273 C-62.76069743 264.08620379 -62.7689382 264.83085485 -62.77742869 265.5980711 C-62.72122178 269.10661084 -62.29316659 271.25444617 -60.52348232 274.3113699 C-57.82139868 276.72150185 -56.72461134 276.97593534 -53.15209961 276.97828674 C-52.1258548 276.9909407 -51.09960999 277.00359467 -50.04226685 277.01663208 C-48.92214203 277.00493988 -47.80201721 276.99324768 -46.64794922 276.98120117 C-44.8718074 276.99193413 -44.8718074 276.99193413 -43.05978394 277.00288391 C-39.81569085 277.01689433 -36.57262993 277.00846322 -33.32859421 276.98879361 C-29.93251343 276.97240224 -26.53648454 276.98122066 -23.14038086 276.98631287 C-17.43736647 276.99083333 -11.73468013 276.97496737 -6.03173828 276.94702148 C0.55995283 276.91496937 7.15105233 276.9149852 13.74278545 276.93223625 C20.0860148 276.9481049 26.42902743 276.94136575 32.77224731 276.92429924 C35.47077204 276.91742992 38.16912299 276.91845982 40.86764526 276.92584419 C44.63625993 276.93128198 48.40386371 276.91096484 52.17236328 276.88354492 C53.2924881 276.8900708 54.41261292 276.89659668 55.56668091 276.90332031 C56.59292572 276.89059586 57.61917053 276.8778714 58.67651367 276.86476135 C60.01269493 276.86055097 60.01269493 276.86055097 61.37586975 276.85625553 C64.71471746 276.14806391 65.81457866 275.15242796 67.76220703 272.35009766 C68.15509044 269.56111794 68.30304299 267.16685457 68.2701416 264.37915039 C68.27638156 263.57001159 68.28262153 262.76087278 68.28905058 261.92721462 C68.30502197 259.2124116 68.29236039 256.49850129 68.27978516 253.78369141 C68.28520444 251.83887202 68.292326 249.89405674 68.30102539 247.94924927 C68.31928468 242.66416006 68.31218041 237.37938264 68.29950905 232.09428787 C68.2893949 226.56813963 68.29877031 221.04201841 68.30505371 215.51586914 C68.31233473 206.23497719 68.30273044 196.95421248 68.28369141 187.67333984 C68.26192185 176.93732856 68.26897289 166.2016211 68.29099703 155.46561718 C68.30913803 146.25448343 68.3117157 137.04344125 68.30124235 127.83229542 C68.29500029 122.32799612 68.29419141 116.82383972 68.30738831 111.31954956 C68.31892723 106.1451683 68.31095679 100.97117945 68.28781128 95.79684067 C68.28251373 93.89570645 68.28405578 91.99453932 68.29286194 90.09341812 C68.30375985 87.50217839 68.29012425 84.9122036 68.2701416 82.32104492 C68.27906449 81.565017 68.28798738 80.80898909 68.29718065 80.03005123 C68.24673092 76.66765246 67.98688411 74.67284655 66.04552364 71.88407993 C63.35504704 70.07655863 61.94229695 69.84568359 58.72120667 69.83543396 C57.70482117 69.8227095 56.68843567 69.80998505 55.64125061 69.796875 C54.53204758 69.80340088 53.42284454 69.80992676 52.2800293 69.81665039 C51.10729462 69.80803482 49.93455994 69.79941925 48.72628784 69.7905426 C45.51327329 69.77173149 42.30090842 69.7709876 39.08786893 69.77986407 C36.40395104 69.78497654 33.72012553 69.77767929 31.03621715 69.770392 C24.70350591 69.75339324 18.37103562 69.75695804 12.03833008 69.77368164 C5.50907894 69.79060154 -1.01950358 69.77477108 -7.54868168 69.74245876 C-13.15818614 69.7157514 -18.76748261 69.70848989 -24.37704426 69.71697384 C-27.72574613 69.72190009 -31.07404578 69.71970483 -34.42269707 69.69918633 C-38.15770275 69.68179648 -41.89127318 69.69623979 -45.6262207 69.71899414 C-46.73339951 69.70730194 -47.84057831 69.69560974 -48.98130798 69.68356323 C-50.00051331 69.69621719 -51.01971863 69.70887115 -52.06980896 69.72190857 C-53.39354601 69.72278803 -53.39354601 69.72278803 -54.74402523 69.72368526 C-58.49112909 70.6649246 -59.94058224 72.2806664 -62.23779297 75.35009766 Z " fill="#23FF04" transform="translate(900.23779296875,381.64990234375)"/>
<path d="M0 0 C67.65 0 135.3 0 205 0 C205 0.99 205 1.98 205 3 C137.35 3 69.7 3 0 3 C0 2.01 0 1.02 0 0 Z " fill="#23FF04" transform="translate(175,189)"/>
<path d="M0 0 C67.65 0 135.3 0 205 0 C205 0.99 205 1.98 205 3 C137.35 3 69.7 3 0 3 C0 2.01 0 1.02 0 0 Z " fill="#23FF04" transform="translate(175,140)"/>
<path d="M0 0 C3.72692572 3.28846387 4.95220532 6.49264256 5.5625 11.375 C5.0293675 15.64006 3.92668958 17.63093838 1.125 20.875 C-2.89281531 23.70573352 -6.016319 24.36882205 -10.91015625 23.5234375 C-14.37953467 22.37847365 -16.32998733 20.48208615 -18.875 17.875 C-20.11717258 14.14848227 -20.4091253 10.74557926 -19.875 6.875 C-15.61449756 -1.34168328 -8.53151276 -3.33841804 0 0 Z " fill="#23FF04" transform="translate(905.875,223.125)"/>
<path d="M0 0 C32.67 0 65.34 0 99 0 C98.0839142 4.580429 96.73622906 7.74697622 94.4375 11.6875 C94.08107422 12.30254395 93.72464844 12.91758789 93.35742188 13.55126953 C90.05510456 19.12139088 86.30375333 24.15616782 82 29 C81.04480469 30.07894531 81.04480469 30.07894531 80.0703125 31.1796875 C73.11950814 38.57712989 64.5745872 44.40856224 54.265625 45.3359375 C40.5011011 45.64567332 31.57244011 42.0045071 21.5 32.6875 C20.2625 31.3571875 20.2625 31.3571875 19 30 C18.12601562 29.13375 18.12601562 29.13375 17.234375 28.25 C9.5254424 20.23756611 4.1102895 10.27572374 0 0 Z M3 2 C10.84183898 17.68367797 21.30780894 35.27139339 38.5546875 41.99609375 C48.87957153 45.28660212 57.17787357 44.16503436 66.79907227 39.19580078 C80.04541301 31.7464383 89.78192301 17.65186775 96 4 C96 3.34 96 2.68 96 2 C65.31 2 34.62 2 3 2 Z " fill="#23FF04" transform="translate(439,473)"/>
<path d="M0 0 C0.66 0 1.32 0 2 0 C2 9.57 2 19.14 2 29 C11.9 29 21.8 29 32 29 C32 29.66 32 30.32 32 31 C22.1 31 12.2 31 2 31 C2 39.58 2 48.16 2 57 C1.34 57 0.68 57 0 57 C0 48.42 0 39.84 0 31 C-9.24 31 -18.48 31 -28 31 C-28 30.34 -28 29.68 -28 29 C-18.76 29 -9.52 29 0 29 C0 19.43 0 9.86 0 0 Z " fill="#23FF04" transform="translate(835,269)"/>
<path d="M0 0 C24.09 0 48.18 0 73 0 C73 0.99 73 1.98 73 3 C48.91 3 24.82 3 0 3 C0 2.01 0 1.02 0 0 Z " fill="#23FF04" transform="translate(175,233)"/>
<path d="M0 0 C0.33 0 0.66 0 1 0 C1 18.15 1 36.3 1 55 C0.67 55 0.34 55 0 55 C0 36.85 0 18.7 0 0 Z " fill="#23FF04" transform="translate(488,384)"/>
</svg>
