<?xml version="1.0" encoding="UTF-8"?>
<svg id="Layer_1" data-name="Layer 1" xmlns="http://www.w3.org/2000/svg" viewBox="0 0 40 40">
  <defs>
    <style>
      .cls-1, .cls-2 {
        fill: none;
        stroke: #9bc442;
        stroke-miterlimit: 10;
        stroke-width: 2px;
      }

      .cls-3, .cls-4 {
        fill: #9bc442;
      }

      .cls-4 {
        font-family: MyriadPro-Regular, 'Myriad Pro';
        font-size: 9.16px;
      }

      .cls-2 {
        stroke-linecap: round;
      }
    </style>
  </defs>
  <path class="cls-2" d="M7.2,6.35s-.68,3.12,1.29,3.8,3.46,.88,3.73,2.85"/>
  <path class="cls-1" d="M5.88,12.76l6.1-6.1c.6-.2,1.16-.4,1.73-.34l5.22,.55c.49,.05,.95,.27,1.3,.62l14.93,14.86h0c.62,.62,.62,1.62,0,2.24l-11.8,11.8h0c-.34,.34-.54,.34-.88,0L6.82,21.1c-.29-.29-.47-.66-.52-1.06l-.74-5.53c-.08-.57,.12-1.14,.32-1.75Z"/>
  <path class="cls-1" d="M21.44,35.38l1.83,1.9c1.09,1.15,1.94,.1,2.64-.61l10.75-10.75h0c.53-.53,.53-1.38,.02-1.92l-2.74-2.84"/>
  <path class="cls-1" d="M20.1,11.51l-8.76,8.76c-.42,.42-.42,1.11,0,1.53l10.97,10.97c.42,.42,1.11,.42,1.53,0l8.71-8.71c.42-.42,.42-1.1,0-1.53l-10.92-11.02c-.42-.43-1.11-.43-1.53,0Z"/>
  <path class="cls-1" d="M12.22,26.37s-2.58,3.64,0,6.09c1.36,1.29,3.73,2.11,6.1-.14"/>
  <path class="cls-1" d="M30.76,17.83s2.45-3.22,.19-5.52c-1.2-1.21-3.56-1.93-5.79,.04"/>
  <ellipse class="cls-1" cx="12.22" cy="12.99" rx="3.2" ry="2.1" transform="translate(-5.61 12.45) rotate(-45)"/>
  <circle class="cls-3" cx="4.85" cy="25.27" r="1.15"/>
  <circle class="cls-3" cx="34.8" cy="35.72" r="1.15"/>
  <path class="cls-1" d="M9.91,24.12l-.25,.22c-.23,.2-.34,.51-.26,.8,.06,.23,.22,.44,.47,.54h0s-.97,2.37-.97,2.37l-.65,.15c-.41,.1-.71,.46-.71,.89v.74c0,.51,.35,.95,.85,1.06l.31,.07,.89,1.63c.17,.31,.14,.69-.08,.97h0c-.23,.31-.2,.74,.08,1l.81,.77c.24,.23,.6,.27,.89,.1l.2-.12c.07-.04,.17-.04,.23,.02,.31,.24,1.22,.88,1.99,.66l.17,.4c.19,.42,.59,.71,1.05,.75l.63,.06c.54,.05,1.03-.3,1.18-.81l.09-.32s1.06-.14,1.64-.75c.08-.08,.2-.1,.29-.04l.49,.27c.42,.23,.93,.18,1.29-.14l.49-.42"/>
  <path class="cls-2" d="M33.69,18.88l.1-.12c.29-.35,.17-.89-.25-1.07h0s.89-2.02,.89-2.02l.56-.11c.36-.07,.62-.38,.63-.75l.02-.64c.01-.44-.28-.83-.71-.94l-.27-.07-.73-1.43c-.14-.27-.1-.6,.09-.83h0c.21-.26,.19-.63-.04-.87l-.68-.69c-.2-.2-.51-.25-.77-.11l-.18,.1c-.06,.04-.14,.03-.2-.02-.26-.22-1.03-.79-1.71-.61l-.14-.35c-.15-.37-.49-.63-.89-.68l-.55-.06c-.46-.05-.9,.23-1.04,.68l-.09,.28s-.92,.1-1.44,.61c-.07,.07-.17,.08-.25,.03l-.42-.25c-.35-.21-.8-.17-1.12,.09l-.39,.38"/>
  <path class="cls-3" d="M35.86,5.3c-.13,.49-.48,1.27-1.47,1.79-.09,.05-.07,.17,.02,.2,.46,.14,1.37,.51,1.79,1.39,.04,.09,.18,.08,.21-.02,.12-.46,.45-1.25,1.29-1.77,.08-.05,.07-.17-.02-.2-.42-.13-1.22-.49-1.61-1.42-.04-.1-.18-.09-.21,.01Z"/>
  <path class="cls-1" d="M26.31,6.52s.34-.47,.61-.68"/>
  <path class="cls-1" d="M27.26,5.57s1.02-.81,2.65-.34"/>
  <text class="cls-4" transform="translate(16.36 18.63) rotate(45)"><tspan x="0" y="0">seo</tspan></text>
</svg>