<?xml version="1.0" encoding="UTF-8"?>
<svg id="Layer_1" data-name="Layer 1" xmlns="http://www.w3.org/2000/svg" viewBox="0 0 40 40">
  <defs>
    <style>
      .cls-1 {
        stroke-width: .75px;
      }

      .cls-1, .cls-2, .cls-3 {
        fill: none;
        stroke: #9bc442;
        stroke-miterlimit: 10;
      }

      .cls-2 {
        stroke-width: 2px;
      }
    </style>
  </defs>
  <path class="cls-2" d="M14.98,3.75s1.13,0,1.82,.3c.32,.14,.67,.17,1,.09,1.75-.44,6.74-1.4,8.14,1.32,1.71,3.32,1.01,5.03,2.31,6.74s2.01,3.22,1.31,5.23-.55,4.46,.28,5.75c.63,.98-.96,3.48-1.76,4.62-.21,.31-.63,.4-.95,.22-.55-.32-1.56-.73-3.1-.73-2.51,0-4.12-.04-4.12-.04v-3.18s3.87-1.55,4.27-5.78l-.1-4.22s-6.03-1.31-8.55-4.53l-.6-.91,.05-4.88Z"/>
  <path class="cls-2" d="M14.98,3.75s-.75-2.46-3.17-2.56c-2.41-.1-7.55,0-7.55,0,0,0-3.01,.3-3.01,3.32v4.1s.7,2.54,3.52,2.24l7.25,.02,2.41,2.59s.8,.35,.55-.88l-.05-3.94"/>
  <path class="cls-2" d="M24.08,14.06s1.88-.39,2.68,.87c.46,.73,.32,1.69-.31,2.28-.45,.42-1.17,.73-2.28,.35"/>
  <path class="cls-2" d="M10.41,13.87s-1.83-.4-2.6,.89c-.45,.75-.31,1.74,.31,2.34,.44,.43,1.14,.75,2.22,.36"/>
  <path class="cls-2" d="M14.64,24.28v1.89c0,.48-.39,.86-.86,.86h-4.88c-3.22,.5-3.62,3.12-3.62,3.12l-1.71,8.55H24.89l.3-.7,2.44-6.15c.3-.76,.91-1.37,1.67-1.67l2.06-.82c.44-.18,.95,0,1.19,.4h0c.11,.18,.31,.28,.52,.24l3.1-.51c.57-.09,1.16-.02,1.69,.21h0c.44,.19,.65,.7,.47,1.15h0c-.18,.45-.53,.81-.98,.99l-5.03,2.03c-.31,.13-.54,.41-.6,.74l-.31,1.87"/>
  <path class="cls-2" d="M5.58,12.96s-1.41,1.61-.6,3.42,1.06,3.65,.18,5.55c-.88,1.89-.14,4.65,1.5,6.04"/>
  <path class="cls-2" d="M10.43,10.86v6.87s-.53,4.99,4.5,6.14c0,0,2.11,.84,4.98,.19"/>
  <path class="cls-3" d="M12.97,27.03h0c.26,1.51,1.57,2.61,3.1,2.61h2.5c1.39,0,2.57-1.01,2.8-2.38h0"/>
  <line class="cls-2" x1=".6" y1="38.7" x2="34" y2="38.7"/>
  <rect class="cls-2" x="32.38" y="17.63" width="5.73" height="9.05" rx="1.22" ry="1.22"/>
  <path class="cls-2" d="M34,17.59l.03-2.18c0-.41,.34-.74,.75-.74h.93c.42,0,.75,.34,.75,.75v2.17"/>
  <path class="cls-3" d="M15.16,18.64h4.2c-1.18,2.49-2.96,2.53-4.16,.09l-.04-.09Z"/>
  <line class="cls-3" x1="3.67" y1="4.21" x2="12.52" y2="4.21"/>
  <line class="cls-3" x1="3.67" y1="6.32" x2="12.52" y2="6.32"/>
  <line class="cls-3" x1="3.67" y1="8.23" x2="6.79" y2="8.23"/>
  <line class="cls-3" x1="17.24" y1="14.77" x2="17.24" y2="17.08"/>
  <line class="cls-1" x1="32.33" y1="9.74" x2="32.33" y2="12.21"/>
  <line class="cls-1" x1="31.12" y1="11.04" x2="33.64" y2="11.04"/>
  <circle class="cls-2" cx="35.04" cy="8.23" r=".5"/>
</svg>