<?xml version="1.0" encoding="UTF-8"?>
<svg id="Layer_1" data-name="Layer 1" xmlns="http://www.w3.org/2000/svg" viewBox="0 0 40 40">
  <defs>
    <style>
      .cls-1, .cls-2 {
        fill: none;
        stroke: #9bc442;
        stroke-miterlimit: 10;
        stroke-width: 2px;
      }

      .cls-2 {
        stroke-linecap: round;
      }
    </style>
  </defs>
  <rect class="cls-1" x="1.02" y="5.74" width="37.96" height="26.6" rx="1.77" ry="1.77"/>
  <path class="cls-2" d="M32.4,8.35H4.47c-.22,0-.4,.18-.4,.41V29.44h1.73"/>
  <path class="cls-2" d="M8.89,29.58h26.61c.37,0,.67-.29,.67-.64V8.5h-.42"/>
  <polygon class="cls-1" points="25.96 37.57 13.28 37.57 14.89 32.34 24.17 32.34 25.96 37.57"/>
  <path class="cls-1" d="M21.61,32.42c0,1.43-.89,2.59-1.99,2.59s-1.99-1.16-1.99-2.59"/>
  <path class="cls-1" d="M10.55,11.4l2.35,2.01c.25,.21,.42,.49,.5,.81l1.84,7.51,8.26-1.34c1.48-.24,2.66-1.37,2.96-2.84l.78-3.81H13.96"/>
  <path class="cls-1" d="M15.23,21.74l-.74,1.74c-.09,.22,.07,.47,.31,.47h11.49"/>
  <line class="cls-1" x1="16.6" y1="14.13" x2="18.23" y2="21.25"/>
  <line class="cls-1" x1="20.38" y1="14.64" x2="20.38" y2="20.9"/>
  <line class="cls-1" x1="23.83" y1="14.13" x2="23.49" y2="20.4"/>
  <line class="cls-1" x1="14.47" y1="17.26" x2="26.46" y2="17.55"/>
  <line class="cls-2" x1="7.83" y1="37.96" x2="29.96" y2="37.96"/>
</svg>