<?xml version="1.0" encoding="UTF-8"?>
<svg id="Layer_1" data-name="Layer 1" xmlns="http://www.w3.org/2000/svg" xmlns:xlink="http://www.w3.org/1999/xlink" viewBox="0 0 40 40">
  <defs>
    <style>
      .cls-1, .cls-2 {
        fill: none;
        stroke: #9bc442;
        stroke-miterlimit: 10;
        stroke-width: 2px;
      }

      .cls-2 {
        stroke-linecap: round;
      }
    </style>
  </defs>
  <image width="512" height="512" transform="scale(.08)" xlink:href="C:\Users\HP\Downloads\Social Media Marketing.png"/>
  <path class="cls-1" d="M18.47,9.49H6.23c-1.04,0-1.89,.82-1.89,1.84v15.4h3.69s.45,4.64-2.16,6.12c0,0,4.41,.26,6.03-5.42h12.55c1.27,0,2.29-1,2.29-2.23v-7.63"/>
  <line class="cls-2" x1="12.26" y1="12.4" x2="7.83" y2="12.4"/>
  <line class="cls-2" x1="7.32" y1="17.84" x2="7.32" y2="12.4"/>
  <line class="cls-2" x1="7.32" y1="20.22" x2="7.32" y2="22.73"/>
  <path class="cls-2" d="M10.64,17.56h1.02c.33,0,.6,.27,.6,.6v6.27c0,.28-.23,.51-.51,.51h-1.11c-.33,0-.6-.27-.6-.6v-6.18c0-.33,.27-.6,.6-.6Z"/>
  <path class="cls-2" d="M12.26,18.16h1.19s-.49-6.04,1.96-5.22c1.77,.6,1.62,5.32,1.62,5.32h3.86c.71,0,1.27,.62,1.2,1.33l-.09,.93c-.26,2.51-2.37,4.42-4.9,4.42h-4.83"/>
  <path class="cls-2" d="M20,8.6s1.87-.6,1.36-2.47,.6-2.3,1.62-1.87,2.3-.34,2.72-1.62,2.72-.77,2.55,1.11,4.85-1.62,4.17,2.13,2.47,1.87,2.04,4.09-2.47,.09-2.13,3.49-2.64,1.67-2.64,1.67c0,0-1.44-.64-2.45,1.73-.87,2.05-2.66-2.02-3.68-1.73s-3.06,.3-2.55-2.26-3.4-1.45-1.53-4.09"/>
  <circle class="cls-2" cx="26.66" cy="9.56" r="2.83"/>
  <path class="cls-2" d="M26.74,38.21l3.63-3.74c.94-.97,1.58-2.66,.66-3.65-.66-.71-1.81-1.08-4.38,.75,0,0-4.11-2.3-4.56,.63-.15,1.01,.64,1.95,1.36,2.68l3.28,3.33Z"/>
</svg>