<?xml version="1.0" encoding="UTF-8"?>
<svg id="Layer_1" data-name="Layer 1" xmlns="http://www.w3.org/2000/svg" viewBox="0 0 40 40">
  <defs>
    <style>
      .cls-1 {
        fill: none;
        stroke: #9bc442;
        stroke-linecap: round;
        stroke-miterlimit: 10;
        stroke-width: 2px;
      }
    </style>
  </defs>
  <path class="cls-1" d="M8.94,6.55l-.51,2.64-1.45,.77-1.77-.82c-.38-.17-.82-.13-1.15,.11h0c-.54,.39-.63,1.15-.21,1.65l.42,.51-.77,2.13h-.21c-.82,0-1.49,.67-1.49,1.49h0c0,.78,.63,1.4,1.4,1.4h.64l.77,1.79-.41,.39c-.61,.58-.61,1.54-.01,2.12l1.14,1.1s.06,.02,.08-.01h0c.45-.77,1.35-1.19,2.22-.97,.22,.05,.46,.07,.73,0,1.19-.26,1.45,2.21,1.45,2.21h0"/>
  <path class="cls-1" d="M29.7,16.68l1.28,.62v1.51l2.47,1.19,.77-.79c.47-.48,1.24-.5,1.74-.04h0c.5,.46,.53,1.24,.08,1.74l-.63,.71,.43,1.45,1.46,.67c.46,.21,.75,.67,.75,1.18h0c0,.72-.58,1.3-1.3,1.3h-.15l-1.28,2.13,.45,.54c.56,.67,.64,1.66,.11,2.35-.12,.16-.36,.3-.9,.43-.3,.07-1.7-1.36-1.7-1.36l-1.45,.77-.85,2.38"/>
  <path class="cls-1" d="M10.17,17.14c-1.04,.7-2.45,.43-3.15-.61s-.43-2.45,.61-3.15"/>
  <path class="cls-1" d="M30.07,22.58c1.2-.34,2.46,.36,2.8,1.56s-.36,2.46-1.56,2.8"/>
  <rect class="cls-1" x="10.17" y="1.15" width="19.53" height="36.7" rx="2.38" ry="2.38"/>
  <line class="cls-1" x1="17.49" y1="4.4" x2="21.7" y2="4.4"/>
  <line class="cls-1" x1="20.7" y1="17.14" x2="19.3" y2="22.86"/>
  <line class="cls-1" x1="17.04" y1="17.04" x2="14.3" y2="20"/>
  <line class="cls-1" x1="16.91" y1="23.06" x2="14.3" y2="20"/>
  <line class="cls-1" x1="23.04" y1="17.53" x2="25.66" y2="19.5"/>
  <line class="cls-1" x1="22.91" y1="23.06" x2="25.66" y2="19.5"/>
  <circle class="cls-1" cx="6.78" cy="27.66" r=".15"/>
  <circle class="cls-1" cx="6.92" cy="30.37" r=".15"/>
  <circle class="cls-1" cx="6.92" cy="33.08" r=".15"/>
  <circle class="cls-1" cx="32.88" cy="6.7" r=".15"/>
  <circle class="cls-1" cx="33.02" cy="9.41" r=".15"/>
  <circle class="cls-1" cx="33.02" cy="12.12" r=".15"/>
</svg>