<?xml version="1.0" encoding="UTF-8"?>
<svg id="Layer_1" data-name="Layer 1" xmlns="http://www.w3.org/2000/svg" viewBox="0 0 40 40">
  <defs>
    <style>
      .cls-1 {
        stroke-dasharray: 0 0 0 0 3 3 5 5;
      }

      .cls-1, .cls-2, .cls-3 {
        fill: none;
        stroke: #9bc442;
        stroke-linecap: round;
        stroke-miterlimit: 10;
      }

      .cls-1, .cls-3 {
        stroke-width: 2px;
      }

      .cls-4 {
        fill: #9bc442;
      }
    </style>
  </defs>
  <circle class="cls-1" cx="20.11" cy="20" r="19"/>
  <path class="cls-3" d="M17.41,14.3c-.3,0-4.8,.4-4.8-.7V5.8c0-.3,.3-.6,.6-.6h14.1c.3,0,.6,.3,.6,.6"/>
  <rect class="cls-3" x="17.91" y="14.3" width="4.2" height="3.3"/>
  <rect class="cls-3" x="15.81" y="18.4" width="8.5" height=".1"/>
  <circle class="cls-3" cx="27.71" cy="27.6" r="3.2"/>
  <circle class="cls-3" cx="26.51" cy="10.5" r="3.7"/>
  <path class="cls-3" d="M31.91,16.7h0c-.6,.5-1.5,.4-2-.2l-1.1-1.3c-.5-.6-.4-1.5,.2-2h0c.6-.5,1.5-.4,2,.2l1.1,1.3c.5,.6,.4,1.5-.2,2Z"/>
  <path class="cls-2" d="M26.41,33.3h0c-.1,.8,.5,1.5,1.3,1.5h1.4c.4,0-.3-2-.3-2l1.3-.6s1.1,.8,1.4,.8c.2,0,1.1-.4,1.5-1,.2-.3,.2-.8,0-1.1l-.5-.6,.8-1.6h.6c.6,0,1.1-.5,1.1-1.1h0c0-.6-.5-1.1-1.1-1.1h-.8l-.7-1.7,.5-.4c.6-.4,.6-1.3,.1-1.8h0c-.5-.6-1.4-.5-1.9,.1l-.3,.4-1.9-.6v-1c0-.6-.5-1.1-1.1-1.1h0c-.6,0-1.1,.5-1.1,1.1v.9l-1.8,.9-.8-.6c-.4-.4-1.1-.4-1.6,0h0c-.4,.4-.4,1.1,0,1.5l.5,.5-.7,1.8h-.5c-.7,0-1.2,.5-1.2,1.1h0c0,.6,.5,1.1,1.1,1.1h.7"/>
  <path class="cls-2" d="M23.71,33.2l-1.4-1.4c-.3-.3-.3-.8,0-1.1l1.4-1.4c.3-.3,.8-.3,1.1,0l1.4,1.4c.3,.3,.3,.8,0,1.1l-1.4,1.4c-.3,.3-.8,.3-1.1,0Z"/>
  <path class="cls-2" d="M20.61,34.9h0c.5,.5,1.4,.5,2,0l1.5-1.5-2-2-1.5,1.5c-.5,.6-.5,1.4,0,2Z"/>
  <path class="cls-2" d="M12.61,21.2c-.5-.3-1.2-.3-1.7,0-1.7,.9-4.97,2.7-5,2.9,0,.06,.2,1.5,.3,3,.1,1.6,.8,3,2.1,4,1.5,1.1,3.2,2.5,3.5,2.5,.2,0,.9-.5,1.8-1.2,2.1-1.6,3.99-3.79,3.7-6.49,0,0,0-.02,0-.03l.28-1.9c0-.05-.02-.1-.06-.13l-4.92-2.66Z"/>
  <path class="cls-2" d="M9.01,26.8v1.9c0,.8,.7,1.5,1.5,1.5h2.4c.8,0,1.5-.7,1.5-1.6v-1.8c0-.6-.5-1.1-1.1-1.1h-3.2c-.6,0-1.1,.5-1.1,1.1Z"/>
  <circle class="cls-2" cx="11.71" cy="28" r=".5"/>
  <path class="cls-2" d="M9.81,25.7v-.9c0-1,.8-1.9,1.9-1.9h0c1,0,1.9,.8,1.9,1.9v.9"/>
  <circle class="cls-4" cx="9.01" cy="17.98" r="1.52"/>
  <circle class="cls-4" cx="4.39" cy="22.04" r="1.52"/>
  <circle class="cls-4" cx="20.01" cy="22.48" r="1.52"/>
  <circle class="cls-4" cx="18.49" cy="30.59" r="1.52"/>
</svg>